<svg xmlns="http://www.w3.org/2000/svg" xmlns:xlink="http://www.w3.org/1999/xlink" width="192" zoomAndPan="magnify" viewBox="0 0 144 143.999998" height="192" preserveAspectRatio="xMidYMid meet" version="1.0"><defs><clipPath id="53f667a897"><path d="M 3.601562 3.601562 L 140.398438 3.601562 L 140.398438 140.398438 L 3.601562 140.398438 Z M 3.601562 3.601562 " clip-rule="nonzero"/></clipPath><clipPath id="2f9fe183e6"><path d="M 72 3.601562 C 34.222656 3.601562 3.601562 34.222656 3.601562 72 C 3.601562 109.777344 34.222656 140.398438 72 140.398438 C 109.777344 140.398438 140.398438 109.777344 140.398438 72 C 140.398438 34.222656 109.777344 3.601562 72 3.601562 Z M 72 3.601562 " clip-rule="nonzero"/></clipPath><clipPath id="55e902f5ec"><path d="M 3.601562 3.601562 L 140.101562 3.601562 L 140.101562 140.101562 L 3.601562 140.101562 Z M 3.601562 3.601562 " clip-rule="nonzero"/></clipPath><clipPath id="5be551fee6"><path d="M 71.996094 3.601562 C 34.222656 3.601562 3.601562 34.222656 3.601562 71.996094 C 3.601562 109.769531 34.222656 140.394531 71.996094 140.394531 C 109.769531 140.394531 140.394531 109.769531 140.394531 71.996094 C 140.394531 34.222656 109.769531 3.601562 71.996094 3.601562 Z M 71.996094 3.601562 " clip-rule="nonzero"/></clipPath></defs><g clip-path="url(#53f667a897)"><g clip-path="url(#2f9fe183e6)"><path fill="#d53288" d="M 3.601562 3.601562 L 140.398438 3.601562 L 140.398438 140.398438 L 3.601562 140.398438 Z M 3.601562 3.601562 " fill-opacity="1" fill-rule="nonzero"/></g></g><g clip-path="url(#55e902f5ec)"><g clip-path="url(#5be551fee6)"><path stroke-linecap="butt" transform="matrix(0.75, 0, 0, 0.75, 3.600001, 3.600002)" fill="none" stroke-linejoin="miter" d="M 91.194796 0.00208095 C 40.83021 0.00208095 0.00208227 40.830208 0.00208227 91.194795 C 0.00208227 141.559381 40.83021 182.392717 91.194796 182.392717 C 141.559382 182.392717 182.392718 141.559381 182.392718 91.194795 C 182.392718 40.830208 141.559382 0.00208095 91.194796 0.00208095 Z M 91.194796 0.00208095 " stroke="#000000" stroke-width="6" stroke-opacity="1" stroke-miterlimit="4"/></g></g></svg>