<svg xmlns="http://www.w3.org/2000/svg" xmlns:xlink="http://www.w3.org/1999/xlink" width="192" zoomAndPan="magnify" viewBox="0 0 144 143.999998" height="192" preserveAspectRatio="xMidYMid meet" version="1.0"><defs><filter x="0%" y="0%" width="100%" height="100%" id="e0c899747f"><feColorMatrix values="0 0 0 0 1 0 0 0 0 1 0 0 0 0 1 0 0 0 1 0" color-interpolation-filters="sRGB"/></filter><mask id="ce9a5da6b6"><g filter="url(#e0c899747f)"><rect x="-14.4" width="172.8" fill="#000000" y="-14.4" height="172.799997" fill-opacity="0.68"/></g></mask><clipPath id="7bbd2413f0"><path d="M 9.800781 9.800781 L 132.199219 9.800781 L 132.199219 132.199219 L 9.800781 132.199219 Z M 9.800781 9.800781 " clip-rule="nonzero"/></clipPath><clipPath id="5297fb3655"><path d="M 71 9.800781 C 37.199219 9.800781 9.800781 37.199219 9.800781 71 C 9.800781 104.800781 37.199219 132.199219 71 132.199219 C 104.800781 132.199219 132.199219 104.800781 132.199219 71 C 132.199219 37.199219 104.800781 9.800781 71 9.800781 Z M 71 9.800781 " clip-rule="nonzero"/></clipPath><clipPath id="28e1dcfc80"><path d="M 9.800781 9.800781 L 132.050781 9.800781 L 132.050781 132.050781 L 9.800781 132.050781 Z M 9.800781 9.800781 " clip-rule="nonzero"/></clipPath><clipPath id="8ad922e956"><path d="M 70.996094 9.800781 C 37.199219 9.800781 9.800781 37.199219 9.800781 70.996094 C 9.800781 104.792969 37.199219 132.191406 70.996094 132.191406 C 104.792969 132.191406 132.191406 104.792969 132.191406 70.996094 C 132.191406 37.199219 104.792969 9.800781 70.996094 9.800781 Z M 70.996094 9.800781 " clip-rule="nonzero"/></clipPath><clipPath id="e1bb257a66"><rect x="0" width="142" y="0" height="142"/></clipPath><clipPath id="0576dfa8aa"><path d="M 0 1.441406 L 144 1.441406 L 144 142 L 0 142 Z M 0 1.441406 " clip-rule="nonzero"/></clipPath></defs><g mask="url(#ce9a5da6b6)"><g transform="matrix(1, 0, 0, 1, 1, 1)"><g clip-path="url(#e1bb257a66)"><g clip-path="url(#7bbd2413f0)"><g clip-path="url(#5297fb3655)"><path fill="#d53288" d="M 9.800781 9.800781 L 132.199219 9.800781 L 132.199219 132.199219 L 9.800781 132.199219 Z M 9.800781 9.800781 " fill-opacity="1" fill-rule="nonzero"/></g></g><g clip-path="url(#28e1dcfc80)"><g clip-path="url(#8ad922e956)"><path stroke-linecap="butt" transform="matrix(0.75, 0, 0, 0.75, 9.800001, 9.800001)" fill="none" stroke-linejoin="miter" d="M 81.594796 0.00103985 C 36.532293 0.00103985 0.00104085 36.532292 0.00104085 81.594795 C 0.00104085 126.657297 36.532293 163.188549 81.594796 163.188549 C 126.657298 163.188549 163.18855 126.657297 163.18855 81.594795 C 163.18855 36.532292 126.657298 0.00103985 81.594796 0.00103985 Z M 81.594796 0.00103985 " stroke="#000000" stroke-width="6" stroke-opacity="1" stroke-miterlimit="4"/></g></g></g></g></g><g clip-path="url(#0576dfa8aa)"><path fill="#262103" d="M 0 135.835938 L 137.984375 1.851562 L 143.9375 7.972656 L 5.957031 141.960938 Z M 0 135.835938 " fill-opacity="1" fill-rule="nonzero"/></g></svg>