<svg xmlns="http://www.w3.org/2000/svg" xmlns:xlink="http://www.w3.org/1999/xlink" width="192" zoomAndPan="magnify" viewBox="0 0 144 143.999998" height="192" preserveAspectRatio="xMidYMid meet" version="1.0"><defs><filter x="0%" y="0%" width="100%" height="100%" id="b673e9f7f4"><feColorMatrix values="0 0 0 0 1 0 0 0 0 1 0 0 0 0 1 0 0 0 1 0" color-interpolation-filters="sRGB"/></filter><mask id="4e70b6d671"><g filter="url(#b673e9f7f4)"><rect x="-14.4" width="172.8" fill="#000000" y="-14.4" height="172.799997" fill-opacity="0.68"/></g></mask><clipPath id="d8e96956f0"><path d="M 10.398438 10.398438 L 125.601562 10.398438 L 125.601562 125.601562 L 10.398438 125.601562 Z M 10.398438 10.398438 " clip-rule="nonzero"/></clipPath><clipPath id="0074745b7f"><path d="M 10.398438 10.398438 L 125.59375 10.398438 L 125.59375 125.59375 L 10.398438 125.59375 Z M 10.398438 10.398438 " clip-rule="nonzero"/></clipPath><clipPath id="a15b1d8e54"><rect x="0" width="136" y="0" height="136"/></clipPath><clipPath id="9c8069140d"><path d="M 0 1.441406 L 144 1.441406 L 144 142 L 0 142 Z M 0 1.441406 " clip-rule="nonzero"/></clipPath></defs><g mask="url(#4e70b6d671)"><g transform="matrix(1, 0, 0, 1, 4, 4)"><g clip-path="url(#a15b1d8e54)"><g clip-path="url(#d8e96956f0)"><path fill="#3f459b" d="M 10.398438 10.398438 L 125.601562 10.398438 L 125.601562 125.601562 L 10.398438 125.601562 Z M 10.398438 10.398438 " fill-opacity="1" fill-rule="nonzero"/></g><g clip-path="url(#0074745b7f)"><path stroke-linecap="butt" transform="matrix(0.75, 0, 0, 0.75, 10.400001, 10.400001)" fill="none" stroke-linejoin="miter" d="M -0.00208515 -0.00208487 L 153.591674 -0.00208487 L 153.591674 153.591674 L -0.00208515 153.591674 Z M -0.00208515 -0.00208487 " stroke="#000000" stroke-width="6" stroke-opacity="1" stroke-miterlimit="4"/></g></g></g></g><g clip-path="url(#9c8069140d)"><path fill="#262103" d="M 0 135.835938 L 137.984375 1.851562 L 143.9375 7.972656 L 5.957031 141.960938 Z M 0 135.835938 " fill-opacity="1" fill-rule="nonzero"/></g></svg>