<svg xmlns="http://www.w3.org/2000/svg" xmlns:xlink="http://www.w3.org/1999/xlink" width="192" zoomAndPan="magnify" viewBox="0 0 144 143.999998" height="192" preserveAspectRatio="xMidYMid meet" version="1.0"><defs><clipPath id="b4654a0945"><path d="M 71.996094 0.726562 L 143.273438 72 L 71.996094 143.277344 L 0.71875 72 Z M 71.996094 0.726562 " clip-rule="nonzero"/></clipPath><clipPath id="34ead94da3"><path d="M 0 0 L 144 0 L 144 143 L 0 143 Z M 0 0 " clip-rule="nonzero"/></clipPath><clipPath id="825a48df2c"><path d="M 71.996094 0.726562 L 143.0625 71.789062 L 71.996094 142.855469 L 0.933594 71.789062 Z M 71.996094 0.726562 " clip-rule="nonzero"/></clipPath><clipPath id="bfc6af1665"><path d="M 71.996094 0.726562 L 143.269531 71.996094 L 71.996094 143.269531 L 0.726562 71.996094 Z M 71.996094 0.726562 " clip-rule="nonzero"/></clipPath></defs><g clip-path="url(#b4654a0945)"><path fill="#21b14b" d="M 71.996094 0.726562 L 143.273438 72 L 71.996094 143.277344 L 0.71875 72 Z M 71.996094 0.726562 " fill-opacity="1" fill-rule="nonzero"/></g><g clip-path="url(#34ead94da3)"><g clip-path="url(#825a48df2c)"><g clip-path="url(#bfc6af1665)"><path stroke-linecap="butt" transform="matrix(0.53033, 0.53033, -0.53033, 0.53033, 71.996481, 0.7251)" fill="none" stroke-linejoin="miter" d="M 0.00101413 0.00174433 L 134.391821 -0.00193851 L 134.391821 134.392551 L 0.00101413 134.388869 Z M 0.00101413 0.00174433 " stroke="#000000" stroke-width="6" stroke-opacity="1" stroke-miterlimit="4"/></g></g></g></svg>